PathFileType	4	(X/Y/Z)	/Users/niels/Desktop/University/Third Semester/Perception and Action/Exam/Gymnastics Motion Tracking/Code for Gym Tracking/Analyzed Data/Webcam_Backflip/id4_1_trajectory_Sports2D/id4_1_trajectory_Sports2D_px_person00.trc
DataRate	CameraRate	NumFrames	NumMarkers	Units	OrigDataRate	OrigDataStartFrame	OrigNumFrames
29.702970297029704	29.702970297029704	9	22	m	29.702970297029704	63	101
Frame#	Time	Hip			RHip			RKnee			RAnkle			RBigToe			RSmallToe			RHeel			LHip			LKnee			LAnkle			LBigToe			LSmallToe			LHeel			Neck			Head			Nose			RShoulder			RElbow			RWrist			LShoulder			LElbow			LWrist		
		X1	Y1	Z1	X2	Y2	Z2	X3	Y3	Z3	X4	Y4	Z4	X5	Y5	Z5	X6	Y6	Z6	X7	Y7	Z7	X8	Y8	Z8	X9	Y9	Z9	X10	Y10	Z10	X11	Y11	Z11	X12	Y12	Z12	X13	Y13	Z13	X14	Y14	Z14	X15	Y15	Z15	X16	Y16	Z16	X17	Y17	Z17	X18	Y18	Z18	X19	Y19	Z19	X20	Y20	Z20	X21	Y21	Z21	X22	Y22	Z22
63	2.121	1.0455623204993674	-0.6024081252443767	0.0	1.0341310048320684	-0.6003742550254216	0.0	1.0698953833285136	-0.7085300673912104	0.0	1.0419263021526222	-0.8375219369927994	0.0	1.0838582596870838	-0.8735348173258197	0.0	1.0698682914150812	-0.8754348627129758	0.0	1.0276678449715693	-0.8571935773955048	0.0	1.0606719342441395	-0.6022302989806537	0.0	1.050105691528111	-0.7151155627431841	0.0	1.0280265598545382	-0.8394823531667345	0.0	1.0762806565300176	-0.8706034725905906	0.0	1.069885543819812	-0.8662905009104958	0.0	1.0151897731534387	-0.859779074964669	0.0	1.09210433751993	-0.4237736152736498	0.0	1.1469438256526256	-0.360855318422928	0.0	1.1351542907337073	-0.4093232156482936	0.0	1.0493315207711196	-0.4371428731069587	0.0	1.0173789123602066	-0.5194693289930334	0.0	1.0294588123802368	-0.602900202478906	0.0	1.1015173601612245	-0.4531401141555338	0.0	1.082155656673587	-0.5357367735472734	0.0	1.0946775833901545	-0.6041123815605391	0.0
64	2.1546666666666665	1.0483711858145626	-0.6037173894112673	0.0	1.036130940673348	-0.6016595435762878	0.0	1.0712544006021216	-0.7087336856193502	0.0	1.0502076013577728	-0.8398884105146801	0.0	1.0884020714720262	-0.8754107304312209	0.0	1.0742188047320482	-0.877562464540225	0.0	1.0375094081399086	-0.8598647662002463	0.0	1.0632009558165472	-0.6035208744809969	0.0	1.04730382329907	-0.7164562681736604	0.0	1.02719885043563	-0.8413325605701517	0.0	1.0767113670608441	-0.8702211411914214	0.0	1.0703501413850975	-0.8657801939686883	0.0	1.0153008428226569	-0.8616962448326476	0.0	1.0931648870366508	-0.42410518505690165	0.0	1.1441780262333126	-0.35882573800776063	0.0	1.134276061219497	-0.40749249191781384	0.0	1.0488837356597085	-0.4393339157673814	0.0	1.0172297704111537	-0.5215334941734556	0.0	1.0276487890432104	-0.6054256730131359	0.0	1.1045240613750409	-0.45416224148099793	0.0	1.0882947569495462	-0.5372506850321164	0.0	1.1051628626722168	-0.6035084171487828	0.0
65	2.188333333333333	1.0517426644549157	-0.6068748224821604	0.0	1.0384523748798906	-0.6045912247822888	0.0	1.0713153987939121	-0.7113079596760423	0.0	1.0588852341644188	-0.8447329539941274	0.0	1.0926904453197885	-0.8788195061040065	0.0	1.0784293531655202	-0.8814582880000953	0.0	1.0483977781688638	-0.8652704018218376	0.0	1.0663974528133362	-0.6064937532660354	0.0	1.0453891131044664	-0.719352652883305	0.0	1.026158337407433	-0.8443905406629229	0.0	1.0765764894598937	-0.871084336510754	0.0	1.0703838060992439	-0.8665011403785643	0.0	1.015305506591375	-0.8650657927749662	0.0	1.0939751607960482	-0.4255274158993492	0.0	1.141146129617715	-0.3574153622652888	0.0	1.1332014833710842	-0.4060518869514868	0.0	1.048561594543847	-0.44276701318578626	0.0	1.017362030091603	-0.5249155327236379	0.0	1.026147433842378	-0.6095701281190551	0.0	1.107236084285031	-0.45607080067883377	0.0	1.0943876023762014	-0.5392285484472773	0.0	1.1166101809901248	-0.6033930631751491	0.0
66	2.222	1.055296672635104	-0.6116220295959105	0.0	1.0409158053222947	-0.6090416353775814	0.0	1.0706428416855915	-0.716039730683307	0.0	1.0671322749891534	-0.8514580329584185	0.0	1.0963156239991696	-0.883437275543345	0.0	1.082113696565895	-0.8867060738072731	0.0	1.0590406700406199	-0.8724321173186547	0.0	1.070026072216077	-0.6109393314915712	0.0	1.0444361358954835	-0.723582762935269	0.0	1.025098345848784	-0.8481961144437754	0.0	1.0756328893052869	-0.8731513758253222	0.0	1.0693823981204567	-0.8683301968753758	0.0	1.0151370787501597	-0.8691286760238031	0.0	1.094443416157644	-0.42801095344711987	0.0	1.1377305056997276	-0.3567519128482953	0.0	1.132034119785942	-0.40529252307420954	0.0	1.048314168511942	-0.44718125559801797	0.0	1.017787504160217	-0.5295874829489869	0.0	1.0251796939009081	-0.6149898973832514	0.0	1.1097646033478215	-0.45867780394813384	0.0	1.1001343439871376	-0.5414497089871609	0.0	1.1279598950047203	-0.603790481682295	0.0
67	2.2556666666666665	1.058665803323441	-0.6173702611103306	0.0	1.0433484811173177	-0.6145733600049841	0.0	1.0698094753750822	-0.7223274157361582	0.0	1.0741347786059599	-0.8593605509854336	0.0	1.0990657883723012	-0.8889539148709789	0.0	1.0849796235695832	-0.8928603441087407	0.0	1.0681614233906642	-0.8803122397906831	0.0	1.0738130340454426	-0.6163188078490087	0.0	1.044355636286823	-0.7287182031444652	0.0	1.0242239662708166	-0.8522982213871485	0.0	1.0741228331048982	-0.8762124990967064	0.0	1.0672785738840116	-0.8710280915507516	0.0	1.0148107078752262	-0.8731780000092633	0.0	1.0945476776808596	-0.4313328449750934	0.0	1.133852754550803	-0.35688162622107505	0.0	1.130766362174444	-0.40537217740234094	0.0	1.0480973656072345	-0.4522859894474586	0.0	1.0183948280145576	-0.5354217095603376	0.0	1.0248289246273667	-0.6213036324836289	0.0	1.1121876198719476	-0.4616751968939932	0.0	1.1053516420713778	-0.5436912364874295	0.0	1.1382709784555607	-0.6047097744413864	0.0
68	2.289333333333333	1.06167697432665	-0.6234060551616493	0.0	1.0456543190563328	-0.620557767941577	0.0	1.0692312417094956	-0.7294242610400767	0.0	1.079345494858879	-0.8677386684762639	0.0	1.100957547578023	-0.8950157643105348	0.0	1.0869276883516836	-0.8994474655442573	0.0	1.0748891333398987	-0.8880642817929161	0.0	1.0775888151045296	-0.6219612269540647	0.0	1.045065487095033	-0.7342134000893027	0.0	1.0237072455828549	-0.8562600823748974	0.0	1.0726678025504455	-0.8798990138232993	0.0	1.064746066436531	-0.8742234599951351	0.0	1.0143978179282929	-0.8766866807186942	0.0	1.0943705923268068	-0.4350517303621396	0.0	1.1296444430851273	-0.3576535630783384	0.0	1.129407401833593	-0.40614836175207764	0.0	1.0478686081404904	-0.45773534297629104	0.0	1.0189751794524906	-0.5420490398949115	0.0	1.025039264385761	-0.6281021499655054	0.0	1.1145456280695327	-0.46472012820739866	0.0	1.110036562989337	-0.5458016731111651	0.0	1.1469673831655884	-0.6061865653114462	0.0
69	2.323	1.0644203661926284	-0.6290956529054432	0.0	1.0478528986828088	-0.6263474627280776	0.0	1.0691034201659468	-0.7366735596182833	0.0	1.0826743274285855	-0.8759695633429605	0.0	1.1021928665093077	-0.9012181226942851	0.0	1.08807128154977	-0.9059759043968949	0.0	1.0790332941389869	-0.8951459959498229	0.0	1.0813429966564119	-0.627290096561783	0.0	1.0465689507259381	-0.7395622462782918	0.0	1.0236602537335482	-0.8596721908601853	0.0	1.071826542778371	-0.8837581031363934	0.0	1.0627992029645414	-0.877462083470671	0.0	1.0139935347858466	-0.8792776225325878	0.0	1.0940378231988264	-0.4386270203426293	0.0	1.1253893663835837	-0.35872394999380397	0.0	1.12803020578241	-0.40725289199579817	0.0	1.0475811264213668	-0.46310816185960957	0.0	1.0193238062530319	-0.5489083096315046	0.0	1.0256493190168192	-0.6350002435534926	0.0	1.1168738121653836	-0.46747485041743003	0.0	1.114332614161669	-0.5477297352503409	0.0	1.1538408338378892	-0.6082297679314854	0.0
70	2.3566666666666665	1.067150362293345	-0.6339367900557815	0.0	1.0500316730526067	-0.6313934696044192	0.0	1.069396914002999	-0.7435619395340382	0.0	1.0844043855814933	-0.8835257036477363	0.0	1.1029527857741555	-0.9070854904073303	0.0	1.0885864593662258	-0.9119537072961692	0.0	1.081003423404799	-0.9012735576625457	0.0	1.0851961943611554	-0.631879471305206	0.0	1.048999758034557	-0.7443952756598151	0.0	1.0241039617615482	-0.8620803310497168	0.0	1.0716996225729984	-0.8873267436328789	0.0	1.062110593332905	-0.8802823472643051	0.0	1.0136938342463229	-0.8805832412982469	0.0	1.093626475271272	-0.44155247862651775	0.0	1.1213294726728074	-0.35964208717056234	0.0	1.126671094421373	-0.40824616741989606	0.0	1.0471678071512223	-0.4679319783371745	0.0	1.0193446641330293	-0.5553843148743763	0.0	1.026413377796248	-0.6416350864363553	0.0	1.119200516256942	-0.46957357542014133	0.0	1.1184096443213576	-0.5494532781636182	0.0	1.1588823809114037	-0.61075032582528	0.0
71	2.390333333333333	1.0700946121246786	-0.6375576687983687	0.0	1.0522577139038352	-0.6353237682990929	0.0	1.0698950937762377	-0.7497044629510786	0.0	1.0849634931597694	-0.8900231717343351	0.0	1.1032903703804622	-0.9121261057223711	0.0	1.088617300709945	-0.9169731621681361	0.0	1.0814774601111794	-0.9063926966808584	0.0	1.0892849203919026	-0.6354292727924984	0.0	1.052653112979307	-0.7484806100289203	0.0	1.0250092420554806	-0.8629346684070422	0.0	1.0719504259542352	-0.8901603422852243	0.0	1.0627729709069855	-0.8822659088307802	0.0	1.0135982719266599	-0.880131430904425	0.0	1.093135785314424	-0.44342698487682886	0.0	1.1175907652457082	-0.3599314257679808	0.0	1.1252542830360381	-0.40873576187656213	0.0	1.0465155843932388	-0.4717459514704729	0.0	1.0190624192682034	-0.5608817788988273	0.0	1.027049503892577	-0.6475834162985356	0.0	1.1215183030979063	-0.4706404804405311	0.0	1.1223223960858912	-0.5508588358545319	0.0	1.1621369068128071	-0.6135293413207189	0.0
